<svg version="1.2" xmlns="http://www.w3.org/2000/svg" viewBox="0 0 200 200" width="200" height="200">
	<title>eye_open</title>
	<style>
		.s0 { fill: #ff7640 } 
		.s1 { fill: #ffffff } 
	</style>
	<path id="Kształt 1" class="s0" d="m5 61c0-30.4 24.6-55 55-55h80c30.4 0 55 24.6 55 55v80c0 30.4-24.6 55-55 55h-80c-30.4 0-55-24.6-55-55z"/>
	<path id="Kształt 5 copy" class="s1" d="m59 96c0 0-5.3 4.2 0 9 1.2 1 11 12 31 16 3.6 0.7 12.1 1.2 20 0 7.9-1.2 24.1-8.2 29-15 4.9-6.8 1.1-8.6 1.1-8.6 0 0-10-11.2-28.1-14.4-18.1-3.2-25.2-1.1-35 2-9.8 3.1-18 11-18 11z"/>
	<path id="Kształt 2" class="s0" d="m100 112c-7.2 0-13-5.8-13-13 0-7.2 5.8-13 13-13 7.2 0 13 5.8 13 13 0 7.2-5.8 13-13 13z"/>
	<path id="Kształt 3" class="s1" d="m100 103c-3.3 0-6-2.7-6-6 0-3.3 2.7-6 6-6 3.3 0 6 2.7 6 6 0 3.3-2.7 6-6 6z"/>
	<path id="Kształt 6" class="s1" d="m125.7 59.6c1.1-1.3 3-1.4 4.2-0.3 1.3 1.1 1.4 3 0.3 4.3l-9.4 10.4c-1.1 1.2-3 1.3-4.2 0.2-1.2-1.1-1.3-3-0.2-4.2z"/>
	<path id="Kształt 6 copy 2" class="s1" d="m83.4 69.4c1.2 1.1 1.3 3 0.2 4.2-1.2 1.2-3.1 1.3-4.3 0.2l-10.2-9.6c-1.2-1.1-1.3-3-0.1-4.3 1.1-1.2 3-1.2 4.2-0.1z"/>
	<path id="Kształt 6 copy" class="s1" d="m97 54c0-1.7 1.3-3 3-3 1.7 0 3 1.3 3 3v14c0 1.7-1.3 3-3 3-1.7 0-3-1.3-3-3z"/>
</svg>