<svg version="1.2" xmlns="http://www.w3.org/2000/svg" viewBox="0 0 200 200" width="200" height="200">
	<title>ok_green</title>
	<style>
		.s0 { fill: #ffffff } 
		.s1 { fill: #47c68f } 
	</style>
	<path id="Kształt 1" class="s0" d="m5 61c0-30.4 24.6-55 55-55h80c30.4 0 55 24.6 55 55v80c0 30.4-24.6 55-55 55h-80c-30.4 0-55-24.6-55-55z"/>
	<path id="Kształt 2" class="s1" d="m99 51c0-1.7 1.3-3 3-3 1.7 0 3 1.3 3 3v11c0 1.7-1.3 3-3 3-1.7 0-3-1.3-3-3z"/>
	<path id="Kształt 2 copy" class="s1" d="m119 56.2c1.1-1.2 3-1.3 4.2-0.2 1.2 1.1 1.3 3 0.2 4.2l-7.3 8.2c-1.1 1.2-3 1.4-4.2 0.3-1.3-1.2-1.4-3-0.3-4.3z"/>
	<path id="Warstwa 3" class="s1" d="m69 105l25-32c0 0 4.2-5.7 11 1 2.7 3 5.3 6.3 2 12-3.3 5.7-4.6 10 0 10 4.6 0 19 0 19 0 0 0 8.7-1.1 8 6-0.7 7.1-3.7 23.7-7 29-3.3 5.3-5 12.1-16 14-11 0.2-38 0-38 0 0 0-4.9 0.3-5-4-0.1-4.3 0-31 0-31 0 0-0.5-3.1 1-5z"/>
</svg>